<svg id="svg" version="1.1" xmlns="http://www.w3.org/2000/svg" xmlns:xlink="http://www.w3.org/1999/xlink" width="400" height="400" viewBox="0, 0, 400,400"><g id="svgg"><path id="path0" d="M106.000 50.183 C 100.042 51.022,91.974 54.242,88.419 57.200 C 84.308 60.621,83.267 61.647,80.804 64.707 C 78.210 67.931,75.829 72.121,74.843 75.200 C 74.596 75.970,74.022 77.758,73.568 79.174 C 72.111 83.713,71.969 89.599,72.086 140.600 L 72.200 189.800 73.319 192.194 C 77.966 202.129,91.091 201.176,94.947 190.623 C 95.263 189.759,95.453 175.144,95.597 140.800 L 95.800 92.200 103.600 92.200 L 111.400 92.200 111.600 221.200 C 111.769 330.205,111.886 350.386,112.356 351.400 C 112.662 352.060,113.164 353.183,113.473 353.895 C 118.650 365.864,137.972 365.529,143.795 353.369 C 145.322 350.179,145.339 349.405,145.572 273.400 L 145.800 198.600 153.109 198.491 C 158.968 198.404,160.459 198.490,160.626 198.924 C 160.741 199.223,160.883 232.572,160.943 273.033 C 161.058 351.412,160.996 349.124,163.106 353.473 C 170.280 368.266,192.733 364.726,194.829 348.472 C 195.019 347.002,195.180 288.911,195.187 219.380 C 195.197 121.601,195.309 92.851,195.680 92.480 C 196.377 91.783,210.351 91.802,210.613 92.500 C 210.716 92.775,210.851 114.600,210.912 141.000 C 211.034 193.427,210.916 190.783,213.281 194.120 C 216.088 198.079,217.769 198.945,222.650 198.945 C 227.967 198.945,230.647 197.243,232.959 192.400 L 234.200 189.800 234.198 137.400 C 234.195 89.748,234.135 84.783,233.529 82.600 C 233.163 81.280,232.581 79.162,232.235 77.894 C 228.508 64.211,214.407 51.979,200.400 50.278 C 195.576 49.693,110.095 49.606,106.000 50.183 M280.800 286.574 C 259.901 290.471,246.093 309.902,249.799 330.200 C 255.956 363.920,298.967 373.271,318.321 345.096 C 336.925 318.013,312.929 280.584,280.800 286.574 M291.328 306.998 C 300.240 309.319,306.373 318.818,304.402 327.246 C 301.162 341.103,284.545 346.141,274.678 336.257 C 262.184 323.742,274.245 302.548,291.328 306.998 " stroke="none" fill="#1d160f" fill-rule="evenodd"></path><path id="path1" d="M182.200 2.400 C 182.064 2.620,180.433 2.800,178.576 2.800 C 176.719 2.800,175.200 2.954,175.200 3.141 C 175.200 3.329,173.101 3.608,170.536 3.761 C 167.971 3.915,165.553 4.211,165.162 4.420 C 164.772 4.629,163.721 4.800,162.826 4.800 C 161.932 4.800,161.200 4.980,161.200 5.200 C 161.200 5.420,160.401 5.600,159.424 5.600 C 158.447 5.600,157.536 5.780,157.400 6.000 C 157.264 6.220,156.533 6.400,155.776 6.400 C 155.019 6.400,154.400 6.580,154.400 6.800 C 154.400 7.020,153.680 7.200,152.800 7.200 C 151.920 7.200,151.200 7.380,151.200 7.600 C 151.200 7.820,150.570 8.000,149.800 8.000 C 149.030 8.000,148.400 8.180,148.400 8.400 C 148.400 8.620,147.680 8.800,146.800 8.800 C 145.920 8.800,145.200 8.955,145.200 9.145 C 145.200 9.334,144.075 9.702,142.700 9.961 C 138.410 10.769,138.000 10.881,138.000 11.245 C 138.000 11.440,137.460 11.600,136.800 11.600 C 136.140 11.600,135.600 11.780,135.600 12.000 C 135.600 12.220,135.161 12.400,134.624 12.400 C 134.087 12.400,133.536 12.580,133.400 12.800 C 133.264 13.020,132.803 13.200,132.376 13.200 C 131.949 13.200,131.600 13.380,131.600 13.600 C 131.600 13.820,131.150 14.000,130.600 14.000 C 130.050 14.000,129.600 14.180,129.600 14.400 C 129.600 14.620,129.060 14.800,128.400 14.800 C 127.740 14.800,127.200 14.935,127.200 15.100 C 127.200 15.265,126.030 15.753,124.600 16.185 C 123.170 16.617,122.000 17.112,122.000 17.285 C 122.000 17.458,121.640 17.600,121.200 17.600 C 120.760 17.600,120.400 17.780,120.400 18.000 C 120.400 18.220,119.950 18.400,119.400 18.400 C 118.850 18.400,118.400 18.580,118.400 18.800 C 118.400 19.020,118.040 19.200,117.600 19.200 C 117.160 19.200,116.800 19.380,116.800 19.600 C 116.800 19.820,116.440 20.000,116.000 20.000 C 115.560 20.000,115.200 20.180,115.200 20.400 C 115.200 20.620,114.840 20.800,114.400 20.800 C 113.960 20.800,113.600 20.972,113.600 21.182 C 113.600 21.392,112.970 21.682,112.200 21.826 C 111.430 21.971,110.800 22.249,110.800 22.445 C 110.800 22.640,110.440 22.800,110.000 22.800 C 109.560 22.800,109.200 22.980,109.200 23.200 C 109.200 23.420,108.840 23.600,108.400 23.600 C 107.960 23.600,107.600 23.780,107.600 24.000 C 107.600 24.220,107.330 24.400,107.000 24.400 C 106.670 24.400,106.400 24.580,106.400 24.800 C 106.400 25.020,106.040 25.200,105.600 25.200 C 105.160 25.200,104.800 25.380,104.800 25.600 C 104.800 25.820,104.506 26.000,104.147 26.000 C 103.788 26.000,103.203 26.336,102.847 26.746 C 102.491 27.157,101.614 27.621,100.900 27.778 C 100.185 27.935,99.600 28.229,99.600 28.432 C 99.600 28.634,99.364 28.800,99.075 28.800 C 98.787 28.800,98.164 29.160,97.692 29.600 C 97.220 30.040,96.556 30.400,96.217 30.400 C 95.878 30.400,95.600 30.580,95.600 30.800 C 95.600 31.020,95.370 31.200,95.088 31.200 C 94.807 31.200,94.317 31.560,94.000 32.000 C 93.683 32.440,93.103 32.800,92.712 32.800 C 92.320 32.800,92.000 32.977,92.000 33.192 C 92.000 33.408,91.563 33.694,91.029 33.828 C 90.496 33.962,89.748 34.416,89.367 34.836 C 88.987 35.256,88.474 35.600,88.226 35.600 C 87.979 35.600,87.517 35.960,87.200 36.400 C 86.883 36.840,86.375 37.200,86.072 37.200 C 85.769 37.200,85.017 37.740,84.400 38.400 C 83.783 39.060,83.089 39.600,82.858 39.600 C 82.626 39.600,81.986 40.050,81.436 40.600 C 80.886 41.150,80.230 41.600,79.979 41.600 C 79.727 41.600,79.017 42.140,78.400 42.800 C 77.783 43.460,77.165 44.000,77.026 44.000 C 76.887 44.000,76.143 44.630,75.373 45.400 C 74.603 46.170,73.735 46.800,73.444 46.800 C 73.152 46.800,71.916 47.880,70.696 49.200 C 69.476 50.520,68.263 51.600,68.000 51.600 C 67.374 51.600,51.600 67.374,51.600 68.000 C 51.600 68.263,50.520 69.476,49.200 70.696 C 47.880 71.916,46.800 73.152,46.800 73.444 C 46.800 73.735,46.170 74.603,45.400 75.373 C 44.630 76.143,44.000 76.887,44.000 77.026 C 44.000 77.165,43.460 77.783,42.800 78.400 C 42.140 79.017,41.600 79.727,41.600 79.979 C 41.600 80.230,41.150 80.886,40.600 81.436 C 40.050 81.986,39.600 82.626,39.600 82.858 C 39.600 83.089,39.060 83.783,38.400 84.400 C 37.740 85.017,37.200 85.769,37.200 86.072 C 37.200 86.375,36.840 86.883,36.400 87.200 C 35.960 87.517,35.600 87.979,35.600 88.226 C 35.600 88.474,35.256 88.987,34.836 89.367 C 34.416 89.748,33.962 90.496,33.828 91.029 C 33.694 91.563,33.408 92.000,33.192 92.000 C 32.977 92.000,32.800 92.320,32.800 92.712 C 32.800 93.103,32.440 93.683,32.000 94.000 C 31.560 94.317,31.200 94.807,31.200 95.088 C 31.200 95.370,31.020 95.600,30.800 95.600 C 30.580 95.600,30.400 95.878,30.400 96.217 C 30.400 96.556,30.040 97.220,29.600 97.692 C 29.160 98.164,28.800 98.787,28.800 99.075 C 28.800 99.364,28.634 99.600,28.432 99.600 C 28.229 99.600,27.935 100.185,27.778 100.900 C 27.621 101.614,27.157 102.491,26.746 102.847 C 26.336 103.203,26.000 103.788,26.000 104.147 C 26.000 104.506,25.820 104.800,25.600 104.800 C 25.380 104.800,25.200 105.160,25.200 105.600 C 25.200 106.040,25.020 106.400,24.800 106.400 C 24.580 106.400,24.400 106.670,24.400 107.000 C 24.400 107.330,24.220 107.600,24.000 107.600 C 23.780 107.600,23.600 107.960,23.600 108.400 C 23.600 108.840,23.420 109.200,23.200 109.200 C 22.980 109.200,22.800 109.560,22.800 110.000 C 22.800 110.440,22.640 110.800,22.445 110.800 C 22.249 110.800,21.971 111.430,21.826 112.200 C 21.682 112.970,21.392 113.600,21.182 113.600 C 20.972 113.600,20.800 113.960,20.800 114.400 C 20.800 114.840,20.620 115.200,20.400 115.200 C 20.180 115.200,20.000 115.560,20.000 116.000 C 20.000 116.440,19.820 116.800,19.600 116.800 C 19.380 116.800,19.200 117.160,19.200 117.600 C 19.200 118.040,19.020 118.400,18.800 118.400 C 18.580 118.400,18.400 118.850,18.400 119.400 C 18.400 119.950,18.220 120.400,18.000 120.400 C 17.780 120.400,17.600 120.760,17.600 121.200 C 17.600 121.640,17.458 122.000,17.285 122.000 C 17.112 122.000,16.617 123.170,16.185 124.600 C 15.753 126.030,15.265 127.200,15.100 127.200 C 14.935 127.200,14.800 127.740,14.800 128.400 C 14.800 129.060,14.620 129.600,14.400 129.600 C 14.180 129.600,14.000 130.050,14.000 130.600 C 14.000 131.150,13.820 131.600,13.600 131.600 C 13.380 131.600,13.200 131.949,13.200 132.376 C 13.200 132.803,13.020 133.264,12.800 133.400 C 12.580 133.536,12.400 134.087,12.400 134.624 C 12.400 135.161,12.220 135.600,12.000 135.600 C 11.780 135.600,11.600 136.140,11.600 136.800 C 11.600 137.460,11.440 138.000,11.245 138.000 C 10.881 138.000,10.769 138.410,9.961 142.700 C 9.702 144.075,9.334 145.200,9.145 145.200 C 8.955 145.200,8.800 145.920,8.800 146.800 C 8.800 147.680,8.620 148.400,8.400 148.400 C 8.180 148.400,8.000 149.030,8.000 149.800 C 8.000 150.570,7.820 151.200,7.600 151.200 C 7.380 151.200,7.200 151.920,7.200 152.800 C 7.200 153.680,7.020 154.400,6.800 154.400 C 6.580 154.400,6.400 155.019,6.400 155.776 C 6.400 156.533,6.220 157.264,6.000 157.400 C 5.780 157.536,5.600 158.447,5.600 159.424 C 5.600 160.401,5.420 161.200,5.200 161.200 C 4.980 161.200,4.800 161.932,4.800 162.826 C 4.800 163.721,4.629 164.772,4.420 165.162 C 4.211 165.553,3.915 167.971,3.761 170.536 C 3.608 173.101,3.329 175.200,3.141 175.200 C 2.954 175.200,2.800 176.719,2.800 178.576 C 2.800 180.433,2.620 182.064,2.400 182.200 C 2.143 182.359,2.000 188.804,2.000 200.224 C 2.000 211.808,2.139 218.000,2.400 218.000 C 2.635 218.000,2.800 219.400,2.800 221.400 C 2.800 223.270,2.954 224.800,3.141 224.800 C 3.329 224.800,3.608 226.899,3.761 229.464 C 3.915 232.029,4.211 234.447,4.420 234.838 C 4.629 235.228,4.800 236.269,4.800 237.150 C 4.800 238.032,4.980 238.864,5.200 239.000 C 5.420 239.136,5.600 239.946,5.600 240.800 C 5.600 241.654,5.780 242.464,6.000 242.600 C 6.220 242.736,6.400 243.467,6.400 244.224 C 6.400 244.981,6.580 245.600,6.800 245.600 C 7.020 245.600,7.200 246.320,7.200 247.200 C 7.200 248.080,7.380 248.800,7.600 248.800 C 7.820 248.800,8.000 249.430,8.000 250.200 C 8.000 250.970,8.180 251.600,8.400 251.600 C 8.620 251.600,8.800 252.320,8.800 253.200 C 8.800 254.080,8.956 254.800,9.146 254.800 C 9.336 254.800,9.607 255.647,9.749 256.681 C 10.017 258.634,10.643 260.896,11.249 262.095 C 11.442 262.477,11.600 263.152,11.600 263.595 C 11.600 264.038,11.780 264.400,12.000 264.400 C 12.220 264.400,12.400 264.839,12.400 265.376 C 12.400 265.913,12.580 266.464,12.800 266.600 C 13.020 266.736,13.200 267.197,13.200 267.624 C 13.200 268.051,13.380 268.400,13.600 268.400 C 13.820 268.400,14.000 268.850,14.000 269.400 C 14.000 269.950,14.180 270.400,14.400 270.400 C 14.620 270.400,14.800 270.940,14.800 271.600 C 14.800 272.260,14.964 272.800,15.165 272.800 C 15.366 272.800,15.651 273.519,15.800 274.398 C 15.948 275.277,16.234 276.097,16.435 276.222 C 16.636 276.346,16.800 276.797,16.800 277.224 C 16.800 277.651,16.980 278.000,17.200 278.000 C 17.420 278.000,17.600 278.360,17.600 278.800 C 17.600 279.240,17.780 279.600,18.000 279.600 C 18.220 279.600,18.400 280.050,18.400 280.600 C 18.400 281.150,18.580 281.600,18.800 281.600 C 19.020 281.600,19.200 281.960,19.200 282.400 C 19.200 282.840,19.380 283.200,19.600 283.200 C 19.820 283.200,20.000 283.560,20.000 284.000 C 20.000 284.440,20.180 284.800,20.400 284.800 C 20.620 284.800,20.800 285.160,20.800 285.600 C 20.800 286.040,20.960 286.400,21.155 286.400 C 21.351 286.400,21.629 287.030,21.774 287.800 C 21.918 288.570,22.208 289.200,22.418 289.200 C 22.628 289.200,22.800 289.560,22.800 290.000 C 22.800 290.440,22.980 290.800,23.200 290.800 C 23.420 290.800,23.600 291.160,23.600 291.600 C 23.600 292.040,23.746 292.400,23.925 292.400 C 24.104 292.400,24.498 293.030,24.800 293.800 C 25.102 294.570,25.496 295.200,25.675 295.200 C 25.854 295.200,26.000 295.494,26.000 295.853 C 26.000 296.212,26.336 296.797,26.746 297.153 C 27.157 297.509,27.621 298.386,27.778 299.100 C 27.935 299.815,28.229 300.400,28.432 300.400 C 28.634 300.400,28.800 300.636,28.800 300.925 C 28.800 301.213,29.160 301.836,29.600 302.308 C 30.040 302.780,30.400 303.444,30.400 303.783 C 30.400 304.122,30.580 304.400,30.800 304.400 C 31.020 304.400,31.200 304.630,31.200 304.912 C 31.200 305.193,31.560 305.683,32.000 306.000 C 32.440 306.317,32.800 306.897,32.800 307.288 C 32.800 307.680,32.945 308.000,33.123 308.000 C 33.301 308.000,33.764 308.720,34.152 309.600 C 34.540 310.480,35.025 311.200,35.229 311.200 C 35.433 311.200,35.600 311.430,35.600 311.712 C 35.600 311.993,35.960 312.483,36.400 312.800 C 36.840 313.117,37.200 313.625,37.200 313.928 C 37.200 314.231,37.740 314.983,38.400 315.600 C 39.060 316.217,39.600 316.984,39.600 317.304 C 39.600 317.625,40.050 318.226,40.600 318.639 C 41.150 319.052,41.600 319.635,41.600 319.934 C 41.600 320.234,42.140 320.983,42.800 321.600 C 43.460 322.217,44.000 322.875,44.000 323.063 C 44.000 323.252,44.630 323.984,45.400 324.690 C 46.170 325.397,46.800 326.229,46.800 326.539 C 46.800 327.131,49.254 329.781,50.735 330.788 C 51.211 331.112,51.600 331.606,51.600 331.885 C 51.600 332.462,52.924 334.122,54.375 335.365 C 54.911 335.824,56.261 337.161,57.375 338.335 C 58.489 339.510,59.840 340.860,60.377 341.335 C 60.914 341.811,62.705 343.595,64.357 345.300 C 66.008 347.005,67.639 348.405,67.980 348.412 C 68.321 348.419,69.050 348.973,69.600 349.644 C 71.126 351.505,72.878 353.200,73.276 353.200 C 73.655 353.200,74.239 353.639,75.801 355.100 C 76.330 355.595,76.880 356.000,77.021 356.000 C 77.163 356.000,77.783 356.540,78.400 357.200 C 79.017 357.860,79.737 358.400,80.000 358.400 C 80.263 358.400,80.983 358.940,81.600 359.600 C 82.217 360.260,82.911 360.800,83.142 360.800 C 83.374 360.800,84.014 361.250,84.564 361.800 C 85.114 362.350,85.802 362.800,86.094 362.800 C 86.385 362.800,86.883 363.160,87.200 363.600 C 87.517 364.040,87.979 364.400,88.226 364.400 C 88.474 364.400,89.002 364.760,89.400 365.200 C 89.798 365.640,90.366 366.000,90.662 366.000 C 90.958 366.000,91.200 366.177,91.200 366.392 C 91.200 366.608,91.695 366.907,92.300 367.056 C 92.905 367.206,93.691 367.659,94.047 368.064 C 94.403 368.469,94.898 368.800,95.147 368.800 C 95.396 368.800,95.600 368.980,95.600 369.200 C 95.600 369.420,95.878 369.600,96.217 369.600 C 96.556 369.600,97.220 369.960,97.692 370.400 C 98.164 370.840,98.787 371.200,99.075 371.200 C 99.364 371.200,99.600 371.343,99.600 371.518 C 99.600 371.693,100.410 372.170,101.400 372.578 C 102.390 372.987,103.200 373.473,103.200 373.660 C 103.200 373.847,103.560 374.000,104.000 374.000 C 104.440 374.000,104.800 374.180,104.800 374.400 C 104.800 374.620,105.160 374.800,105.600 374.800 C 106.040 374.800,106.400 374.980,106.400 375.200 C 106.400 375.420,106.670 375.600,107.000 375.600 C 107.330 375.600,107.600 375.780,107.600 376.000 C 107.600 376.220,107.960 376.400,108.400 376.400 C 108.840 376.400,109.200 376.580,109.200 376.800 C 109.200 377.020,109.560 377.200,110.000 377.200 C 110.440 377.200,110.800 377.380,110.800 377.600 C 110.800 377.820,111.160 378.000,111.600 378.000 C 112.040 378.000,112.400 378.172,112.400 378.382 C 112.400 378.592,113.030 378.882,113.800 379.026 C 114.570 379.171,115.200 379.449,115.200 379.645 C 115.200 379.840,115.560 380.000,116.000 380.000 C 116.440 380.000,116.800 380.180,116.800 380.400 C 116.800 380.620,117.160 380.800,117.600 380.800 C 118.040 380.800,118.400 380.980,118.400 381.200 C 118.400 381.420,118.850 381.600,119.400 381.600 C 119.950 381.600,120.400 381.780,120.400 382.000 C 120.400 382.220,120.760 382.400,121.200 382.400 C 121.640 382.400,122.000 382.580,122.000 382.800 C 122.000 383.020,122.272 383.200,122.605 383.200 C 122.938 383.200,123.523 383.365,123.905 383.566 C 125.772 384.551,127.621 385.200,128.560 385.200 C 129.132 385.200,129.600 385.380,129.600 385.600 C 129.600 385.820,130.050 386.000,130.600 386.000 C 131.150 386.000,131.600 386.180,131.600 386.400 C 131.600 386.620,131.949 386.800,132.376 386.800 C 132.803 386.800,133.264 386.980,133.400 387.200 C 133.536 387.420,134.087 387.600,134.624 387.600 C 135.161 387.600,135.600 387.780,135.600 388.000 C 135.600 388.220,136.140 388.400,136.800 388.400 C 137.460 388.400,138.000 388.560,138.000 388.755 C 138.000 389.087,138.410 389.209,141.700 389.855 C 142.415 389.996,143.100 390.265,143.222 390.453 C 143.345 390.642,144.560 390.913,145.922 391.055 C 147.285 391.197,148.400 391.468,148.400 391.657 C 148.400 391.846,149.030 392.000,149.800 392.000 C 150.570 392.000,151.200 392.180,151.200 392.400 C 151.200 392.620,151.920 392.800,152.800 392.800 C 153.680 392.800,154.400 392.980,154.400 393.200 C 154.400 393.420,155.019 393.600,155.776 393.600 C 156.533 393.600,157.264 393.780,157.400 394.000 C 157.536 394.220,158.447 394.400,159.424 394.400 C 160.401 394.400,161.200 394.580,161.200 394.800 C 161.200 395.020,161.999 395.200,162.976 395.200 C 163.953 395.200,164.864 395.380,165.000 395.600 C 165.136 395.820,166.148 396.000,167.250 396.000 C 168.351 396.000,169.571 396.171,169.961 396.379 C 170.351 396.588,173.219 396.885,176.335 397.039 C 179.451 397.193,182.000 397.472,182.000 397.660 C 182.000 397.847,190.100 398.000,200.000 398.000 C 209.900 398.000,218.000 397.846,218.000 397.658 C 218.000 397.470,220.645 397.187,223.878 397.030 C 227.112 396.873,230.070 396.577,230.452 396.372 C 230.835 396.167,231.959 396.000,232.950 396.000 C 233.942 396.000,234.864 395.820,235.000 395.600 C 235.136 395.380,236.036 395.200,237.000 395.200 C 237.964 395.200,238.864 395.020,239.000 394.800 C 239.136 394.580,240.047 394.400,241.024 394.400 C 242.001 394.400,242.800 394.220,242.800 394.000 C 242.800 393.780,243.430 393.600,244.200 393.600 C 244.970 393.600,245.600 393.420,245.600 393.200 C 245.600 392.980,246.320 392.800,247.200 392.800 C 248.080 392.800,248.800 392.620,248.800 392.400 C 248.800 392.180,249.430 392.000,250.200 392.000 C 250.970 392.000,251.600 391.846,251.600 391.657 C 251.600 391.468,252.678 391.201,253.995 391.064 C 255.312 390.926,256.707 390.648,257.095 390.446 C 257.483 390.243,258.610 389.863,259.600 389.600 C 260.590 389.337,261.713 388.960,262.095 388.761 C 262.477 388.562,263.152 388.400,263.595 388.400 C 264.038 388.400,264.400 388.220,264.400 388.000 C 264.400 387.780,264.940 387.600,265.600 387.600 C 266.260 387.600,266.800 387.420,266.800 387.200 C 266.800 386.980,267.160 386.800,267.600 386.800 C 268.040 386.800,268.400 386.620,268.400 386.400 C 268.400 386.180,268.850 386.000,269.400 386.000 C 269.950 386.000,270.400 385.820,270.400 385.600 C 270.400 385.380,270.895 385.199,271.500 385.198 C 272.105 385.196,273.116 384.926,273.746 384.598 C 274.376 384.269,275.231 384.000,275.646 384.000 C 276.061 384.000,276.400 383.820,276.400 383.600 C 276.400 383.380,276.760 383.200,277.200 383.200 C 277.640 383.200,278.000 383.020,278.000 382.800 C 278.000 382.580,278.360 382.400,278.800 382.400 C 279.240 382.400,279.600 382.220,279.600 382.000 C 279.600 381.780,280.050 381.600,280.600 381.600 C 281.150 381.600,281.600 381.420,281.600 381.200 C 281.600 380.980,281.960 380.800,282.400 380.800 C 282.840 380.800,283.200 380.620,283.200 380.400 C 283.200 380.180,283.560 380.000,284.000 380.000 C 284.440 380.000,284.800 379.820,284.800 379.600 C 284.800 379.380,285.069 379.200,285.397 379.200 C 286.231 379.200,289.200 377.877,289.200 377.506 C 289.200 377.338,289.560 377.200,290.000 377.200 C 290.440 377.200,290.800 377.020,290.800 376.800 C 290.800 376.580,291.160 376.400,291.600 376.400 C 292.040 376.400,292.400 376.254,292.400 376.075 C 292.400 375.896,293.030 375.502,293.800 375.200 C 294.570 374.898,295.200 374.504,295.200 374.325 C 295.200 374.146,295.560 374.000,296.000 374.000 C 296.440 374.000,296.800 373.847,296.800 373.660 C 296.800 373.473,297.610 372.987,298.600 372.578 C 299.590 372.170,300.400 371.693,300.400 371.518 C 300.400 371.343,300.720 371.200,301.112 371.200 C 301.503 371.200,302.083 370.840,302.400 370.400 C 302.717 369.960,303.297 369.600,303.688 369.600 C 304.080 369.600,304.400 369.420,304.400 369.200 C 304.400 368.980,304.630 368.800,304.912 368.800 C 305.193 368.800,305.683 368.440,306.000 368.000 C 306.317 367.560,306.884 367.200,307.260 367.200 C 307.635 367.200,308.181 366.975,308.471 366.700 C 308.762 366.425,309.495 365.945,310.100 365.632 C 310.705 365.320,311.200 364.915,311.200 364.732 C 311.200 364.550,311.430 364.400,311.712 364.400 C 311.993 364.400,312.483 364.040,312.800 363.600 C 313.117 363.160,313.615 362.800,313.906 362.800 C 314.198 362.800,314.886 362.350,315.436 361.800 C 315.986 361.250,316.678 360.800,316.973 360.800 C 317.268 360.800,317.935 360.262,318.455 359.604 C 318.975 358.946,319.643 358.406,319.940 358.404 C 320.236 358.402,320.983 357.860,321.600 357.200 C 322.217 356.540,322.886 356.000,323.088 356.000 C 323.290 356.000,323.836 355.595,324.300 355.100 C 325.480 353.843,326.303 353.200,326.735 353.200 C 327.170 353.200,329.943 350.508,330.788 349.265 C 331.112 348.789,331.652 348.399,331.988 348.398 C 332.325 348.397,333.365 347.632,334.299 346.698 C 335.234 345.764,336.630 344.370,337.403 343.600 C 339.197 341.811,341.811 339.197,343.600 337.403 C 344.370 336.630,345.764 335.234,346.698 334.299 C 347.632 333.365,348.397 332.325,348.398 331.988 C 348.399 331.652,348.789 331.112,349.265 330.788 C 350.508 329.943,353.200 327.170,353.200 326.735 C 353.200 326.303,353.843 325.480,355.100 324.300 C 355.595 323.836,356.000 323.290,356.000 323.088 C 356.000 322.886,356.540 322.217,357.200 321.600 C 357.860 320.983,358.402 320.236,358.404 319.940 C 358.406 319.643,358.946 318.975,359.604 318.455 C 360.262 317.935,360.800 317.268,360.800 316.973 C 360.800 316.678,361.250 315.986,361.800 315.436 C 362.350 314.886,362.800 314.198,362.800 313.906 C 362.800 313.615,363.160 313.117,363.600 312.800 C 364.040 312.483,364.400 311.993,364.400 311.712 C 364.400 311.430,364.550 311.200,364.732 311.200 C 364.915 311.200,365.320 310.705,365.632 310.100 C 365.945 309.495,366.425 308.762,366.700 308.471 C 366.975 308.181,367.200 307.635,367.200 307.260 C 367.200 306.884,367.560 306.317,368.000 306.000 C 368.440 305.683,368.800 305.193,368.800 304.912 C 368.800 304.630,368.980 304.400,369.200 304.400 C 369.420 304.400,369.600 304.080,369.600 303.688 C 369.600 303.297,369.960 302.717,370.400 302.400 C 370.840 302.083,371.200 301.503,371.200 301.112 C 371.200 300.720,371.343 300.400,371.518 300.400 C 371.693 300.400,372.170 299.590,372.578 298.600 C 372.987 297.610,373.473 296.800,373.660 296.800 C 373.847 296.800,374.000 296.440,374.000 296.000 C 374.000 295.560,374.146 295.200,374.325 295.200 C 374.504 295.200,374.898 294.570,375.200 293.800 C 375.502 293.030,375.896 292.400,376.075 292.400 C 376.254 292.400,376.400 292.040,376.400 291.600 C 376.400 291.160,376.580 290.800,376.800 290.800 C 377.020 290.800,377.200 290.440,377.200 290.000 C 377.200 289.560,377.338 289.200,377.506 289.200 C 377.877 289.200,379.200 286.231,379.200 285.397 C 379.200 285.069,379.380 284.800,379.600 284.800 C 379.820 284.800,380.000 284.440,380.000 284.000 C 380.000 283.560,380.180 283.200,380.400 283.200 C 380.620 283.200,380.800 282.840,380.800 282.400 C 380.800 281.960,380.980 281.600,381.200 281.600 C 381.420 281.600,381.600 281.150,381.600 280.600 C 381.600 280.050,381.780 279.600,382.000 279.600 C 382.220 279.600,382.400 279.240,382.400 278.800 C 382.400 278.360,382.580 278.000,382.800 278.000 C 383.020 278.000,383.200 277.640,383.200 277.200 C 383.200 276.760,383.380 276.400,383.600 276.400 C 383.820 276.400,384.000 276.061,384.000 275.646 C 384.000 275.231,384.269 274.376,384.598 273.746 C 384.926 273.116,385.196 272.105,385.198 271.500 C 385.199 270.895,385.380 270.400,385.600 270.400 C 385.820 270.400,386.000 269.950,386.000 269.400 C 386.000 268.850,386.180 268.400,386.400 268.400 C 386.620 268.400,386.800 268.040,386.800 267.600 C 386.800 267.160,386.980 266.800,387.200 266.800 C 387.420 266.800,387.600 266.260,387.600 265.600 C 387.600 264.940,387.780 264.400,388.000 264.400 C 388.220 264.400,388.400 264.038,388.400 263.595 C 388.400 263.152,388.562 262.477,388.761 262.095 C 388.960 261.713,389.337 260.590,389.600 259.600 C 389.863 258.610,390.243 257.483,390.446 257.095 C 390.648 256.707,390.926 255.312,391.064 253.995 C 391.201 252.678,391.468 251.600,391.657 251.600 C 391.846 251.600,392.000 250.970,392.000 250.200 C 392.000 249.430,392.180 248.800,392.400 248.800 C 392.620 248.800,392.800 248.080,392.800 247.200 C 392.800 246.320,392.980 245.600,393.200 245.600 C 393.420 245.600,393.600 244.970,393.600 244.200 C 393.600 243.430,393.780 242.800,394.000 242.800 C 394.220 242.800,394.400 242.001,394.400 241.024 C 394.400 240.047,394.580 239.136,394.800 239.000 C 395.020 238.864,395.200 237.964,395.200 237.000 C 395.200 236.036,395.380 235.136,395.600 235.000 C 395.820 234.864,396.000 233.942,396.000 232.950 C 396.000 231.959,396.167 230.835,396.372 230.452 C 396.577 230.070,396.873 227.112,397.030 223.878 C 397.187 220.645,397.470 218.000,397.658 218.000 C 397.846 218.000,398.000 209.900,398.000 200.000 C 398.000 190.100,397.847 182.000,397.660 182.000 C 397.472 182.000,397.193 179.451,397.039 176.335 C 396.885 173.219,396.588 170.351,396.379 169.961 C 396.171 169.571,396.000 168.351,396.000 167.250 C 396.000 166.148,395.820 165.136,395.600 165.000 C 395.380 164.864,395.200 163.953,395.200 162.976 C 395.200 161.999,395.020 161.200,394.800 161.200 C 394.580 161.200,394.400 160.401,394.400 159.424 C 394.400 158.447,394.220 157.536,394.000 157.400 C 393.780 157.264,393.600 156.533,393.600 155.776 C 393.600 155.019,393.420 154.400,393.200 154.400 C 392.980 154.400,392.800 153.680,392.800 152.800 C 392.800 151.920,392.620 151.200,392.400 151.200 C 392.180 151.200,392.000 150.570,392.000 149.800 C 392.000 149.030,391.846 148.400,391.657 148.400 C 391.468 148.400,391.197 147.285,391.055 145.922 C 390.913 144.560,390.642 143.345,390.453 143.222 C 390.265 143.100,389.996 142.415,389.855 141.700 C 389.209 138.410,389.087 138.000,388.755 138.000 C 388.560 138.000,388.400 137.460,388.400 136.800 C 388.400 136.140,388.220 135.600,388.000 135.600 C 387.780 135.600,387.600 135.161,387.600 134.624 C 387.600 134.087,387.420 133.536,387.200 133.400 C 386.980 133.264,386.800 132.803,386.800 132.376 C 386.800 131.949,386.620 131.600,386.400 131.600 C 386.180 131.600,386.000 131.150,386.000 130.600 C 386.000 130.050,385.820 129.600,385.600 129.600 C 385.380 129.600,385.200 129.132,385.200 128.560 C 385.200 127.621,384.551 125.772,383.566 123.905 C 383.365 123.523,383.200 122.938,383.200 122.605 C 383.200 122.272,383.020 122.000,382.800 122.000 C 382.580 122.000,382.400 121.640,382.400 121.200 C 382.400 120.760,382.220 120.400,382.000 120.400 C 381.780 120.400,381.600 119.950,381.600 119.400 C 381.600 118.850,381.420 118.400,381.200 118.400 C 380.980 118.400,380.800 118.040,380.800 117.600 C 380.800 117.160,380.620 116.800,380.400 116.800 C 380.180 116.800,380.000 116.440,380.000 116.000 C 380.000 115.560,379.840 115.200,379.645 115.200 C 379.449 115.200,379.171 114.570,379.026 113.800 C 378.882 113.030,378.592 112.400,378.382 112.400 C 378.172 112.400,378.000 112.040,378.000 111.600 C 378.000 111.160,377.820 110.800,377.600 110.800 C 377.380 110.800,377.200 110.440,377.200 110.000 C 377.200 109.560,377.020 109.200,376.800 109.200 C 376.580 109.200,376.400 108.840,376.400 108.400 C 376.400 107.960,376.220 107.600,376.000 107.600 C 375.780 107.600,375.600 107.330,375.600 107.000 C 375.600 106.670,375.420 106.400,375.200 106.400 C 374.980 106.400,374.800 106.040,374.800 105.600 C 374.800 105.160,374.620 104.800,374.400 104.800 C 374.180 104.800,374.000 104.440,374.000 104.000 C 374.000 103.560,373.847 103.200,373.660 103.200 C 373.473 103.200,372.987 102.390,372.578 101.400 C 372.170 100.410,371.693 99.600,371.518 99.600 C 371.343 99.600,371.200 99.364,371.200 99.075 C 371.200 98.787,370.840 98.164,370.400 97.692 C 369.960 97.220,369.600 96.556,369.600 96.217 C 369.600 95.878,369.420 95.600,369.200 95.600 C 368.980 95.600,368.800 95.396,368.800 95.147 C 368.800 94.898,368.469 94.403,368.064 94.047 C 367.659 93.691,367.206 92.905,367.056 92.300 C 366.907 91.695,366.608 91.200,366.392 91.200 C 366.177 91.200,366.000 90.958,366.000 90.662 C 366.000 90.366,365.640 89.798,365.200 89.400 C 364.760 89.002,364.400 88.474,364.400 88.226 C 364.400 87.979,364.040 87.517,363.600 87.200 C 363.160 86.883,362.800 86.385,362.800 86.094 C 362.800 85.802,362.350 85.114,361.800 84.564 C 361.250 84.014,360.800 83.374,360.800 83.142 C 360.800 82.911,360.260 82.217,359.600 81.600 C 358.940 80.983,358.400 80.263,358.400 80.000 C 358.400 79.737,357.860 79.017,357.200 78.400 C 356.540 77.783,356.000 77.163,356.000 77.021 C 356.000 76.880,355.595 76.330,355.100 75.801 C 353.639 74.239,353.200 73.655,353.200 73.276 C 353.200 72.878,351.505 71.126,349.644 69.600 C 348.973 69.050,348.419 68.321,348.412 67.980 C 348.405 67.639,347.005 66.008,345.300 64.357 C 343.595 62.705,341.811 60.914,341.335 60.377 C 340.860 59.840,339.510 58.489,338.335 57.375 C 337.161 56.261,335.824 54.911,335.365 54.375 C 334.122 52.924,332.462 51.600,331.885 51.600 C 331.606 51.600,331.112 51.211,330.788 50.735 C 329.781 49.254,327.131 46.800,326.539 46.800 C 326.229 46.800,325.397 46.170,324.690 45.400 C 323.984 44.630,323.252 44.000,323.063 44.000 C 322.875 44.000,322.217 43.460,321.600 42.800 C 320.983 42.140,320.234 41.600,319.934 41.600 C 319.635 41.600,319.052 41.150,318.639 40.600 C 318.226 40.050,317.625 39.600,317.304 39.600 C 316.984 39.600,316.217 39.060,315.600 38.400 C 314.983 37.740,314.231 37.200,313.928 37.200 C 313.625 37.200,313.117 36.840,312.800 36.400 C 312.483 35.960,311.993 35.600,311.712 35.600 C 311.430 35.600,311.200 35.433,311.200 35.229 C 311.200 35.025,310.480 34.540,309.600 34.152 C 308.720 33.764,308.000 33.301,308.000 33.123 C 308.000 32.945,307.680 32.800,307.288 32.800 C 306.897 32.800,306.317 32.440,306.000 32.000 C 305.683 31.560,305.193 31.200,304.912 31.200 C 304.630 31.200,304.400 31.020,304.400 30.800 C 304.400 30.580,304.122 30.400,303.783 30.400 C 303.444 30.400,302.780 30.040,302.308 29.600 C 301.836 29.160,301.213 28.800,300.925 28.800 C 300.636 28.800,300.400 28.634,300.400 28.432 C 300.400 28.229,299.815 27.935,299.100 27.778 C 298.386 27.621,297.509 27.157,297.153 26.746 C 296.797 26.336,296.212 26.000,295.853 26.000 C 295.494 26.000,295.200 25.854,295.200 25.675 C 295.200 25.496,294.570 25.102,293.800 24.800 C 293.030 24.498,292.400 24.104,292.400 23.925 C 292.400 23.746,292.040 23.600,291.600 23.600 C 291.160 23.600,290.800 23.420,290.800 23.200 C 290.800 22.980,290.440 22.800,290.000 22.800 C 289.560 22.800,289.200 22.628,289.200 22.418 C 289.200 22.208,288.570 21.918,287.800 21.774 C 287.030 21.629,286.400 21.351,286.400 21.155 C 286.400 20.960,286.040 20.800,285.600 20.800 C 285.160 20.800,284.800 20.620,284.800 20.400 C 284.800 20.180,284.440 20.000,284.000 20.000 C 283.560 20.000,283.200 19.820,283.200 19.600 C 283.200 19.380,282.840 19.200,282.400 19.200 C 281.960 19.200,281.600 19.020,281.600 18.800 C 281.600 18.580,281.150 18.400,280.600 18.400 C 280.050 18.400,279.600 18.220,279.600 18.000 C 279.600 17.780,279.240 17.600,278.800 17.600 C 278.360 17.600,278.000 17.420,278.000 17.200 C 278.000 16.980,277.651 16.800,277.224 16.800 C 276.797 16.800,276.346 16.636,276.222 16.435 C 276.097 16.234,275.277 15.948,274.398 15.800 C 273.519 15.651,272.800 15.366,272.800 15.165 C 272.800 14.964,272.260 14.800,271.600 14.800 C 270.940 14.800,270.400 14.620,270.400 14.400 C 270.400 14.180,269.950 14.000,269.400 14.000 C 268.850 14.000,268.400 13.820,268.400 13.600 C 268.400 13.380,268.051 13.200,267.624 13.200 C 267.197 13.200,266.736 13.020,266.600 12.800 C 266.464 12.580,265.913 12.400,265.376 12.400 C 264.839 12.400,264.400 12.220,264.400 12.000 C 264.400 11.780,264.038 11.600,263.595 11.600 C 263.152 11.600,262.477 11.442,262.095 11.249 C 260.896 10.643,258.634 10.017,256.681 9.749 C 255.647 9.607,254.800 9.336,254.800 9.146 C 254.800 8.956,254.080 8.800,253.200 8.800 C 252.320 8.800,251.600 8.620,251.600 8.400 C 251.600 8.180,250.970 8.000,250.200 8.000 C 249.430 8.000,248.800 7.820,248.800 7.600 C 248.800 7.380,248.080 7.200,247.200 7.200 C 246.320 7.200,245.600 7.020,245.600 6.800 C 245.600 6.580,244.981 6.400,244.224 6.400 C 243.467 6.400,242.736 6.220,242.600 6.000 C 242.464 5.780,241.654 5.600,240.800 5.600 C 239.946 5.600,239.136 5.420,239.000 5.200 C 238.864 4.980,238.032 4.800,237.150 4.800 C 236.269 4.800,235.228 4.629,234.838 4.420 C 234.447 4.211,232.029 3.915,229.464 3.761 C 226.899 3.608,224.800 3.329,224.800 3.141 C 224.800 2.954,223.270 2.800,221.400 2.800 C 219.400 2.800,218.000 2.635,218.000 2.400 C 218.000 2.139,211.808 2.000,200.224 2.000 C 188.804 2.000,182.359 2.143,182.200 2.400 M199.000 49.218 C 213.330 51.114,224.569 59.189,230.731 72.016 C 235.322 81.572,235.264 80.667,235.119 140.600 L 235.000 189.800 234.039 192.200 C 230.497 201.045,219.484 202.882,213.432 195.638 C 209.844 191.344,210.000 193.893,210.000 139.617 L 210.000 92.800 209.100 92.774 C 205.390 92.667,196.716 92.751,196.571 92.895 C 196.473 92.994,196.290 150.297,196.163 220.237 C 195.926 351.760,195.951 350.116,194.130 353.835 C 186.961 368.477,165.861 366.541,161.051 350.800 C 160.758 349.838,160.557 325.921,160.412 274.400 L 160.200 199.400 153.400 199.400 L 146.600 199.400 146.397 274.400 C 146.178 355.166,146.310 350.551,144.093 354.400 C 136.935 366.824,119.562 366.902,112.937 354.539 C 110.700 350.364,110.800 356.654,110.800 220.350 C 110.800 119.107,110.698 93.181,110.300 92.924 C 109.586 92.462,97.500 92.453,96.900 92.914 C 96.505 93.217,96.399 103.304,96.396 140.949 C 96.392 182.323,96.312 188.863,95.786 190.594 C 92.302 202.083,77.938 203.320,72.592 192.592 L 71.400 190.200 71.290 139.800 C 71.176 87.615,71.276 83.600,72.815 78.600 C 73.753 75.553,75.616 70.720,75.975 70.400 C 76.099 70.290,76.634 69.390,77.164 68.400 C 80.821 61.572,90.802 53.401,98.200 51.178 C 99.080 50.914,100.250 50.518,100.800 50.298 C 104.062 48.994,108.069 48.879,152.000 48.837 C 180.771 48.809,196.898 48.940,199.000 49.218 M295.800 286.165 C 308.410 289.674,318.069 297.760,322.293 308.344 C 323.051 310.245,323.817 312.160,323.994 312.600 C 325.446 316.206,325.967 328.136,324.850 332.200 C 320.649 347.489,311.154 357.223,296.200 361.573 C 292.354 362.691,281.688 362.689,277.800 361.568 C 273.583 360.353,266.312 356.940,264.717 355.427 C 264.122 354.862,263.473 354.400,263.274 354.400 C 262.618 354.400,256.229 347.441,254.514 344.857 C 242.002 326.005,249.867 298.193,270.261 289.174 C 276.149 286.570,276.533 286.451,282.400 285.426 C 284.323 285.090,293.818 285.614,295.800 286.165 M285.689 322.223 C 284.611 322.978,284.537 324.438,285.531 325.338 C 287.557 327.171,290.435 324.770,288.762 322.643 C 287.824 321.450,286.961 321.332,285.689 322.223 " stroke="none" fill="#fbfbfb" fill-rule="evenodd"></path><path id="path2" d="M283.218 306.837 C 273.582 308.726,267.242 319.682,270.335 329.099 C 274.429 341.561,289.682 345.488,299.097 336.503 C 311.872 324.310,300.686 303.413,283.218 306.837 M288.546 322.029 C 290.474 323.546,289.488 326.400,287.037 326.400 C 285.950 326.400,284.400 324.848,284.400 323.759 C 284.400 322.854,286.080 321.200,287.000 321.200 C 287.271 321.200,287.966 321.573,288.546 322.029 " stroke="none" fill="#f14238" fill-rule="evenodd"></path><path id="path3" d="M105.000 49.389 C 103.240 49.669,101.350 50.078,100.800 50.298 C 100.250 50.518,99.080 50.914,98.200 51.178 C 95.268 52.059,89.996 54.971,86.837 57.456 C 82.702 60.707,75.763 69.097,76.554 69.888 C 76.657 69.990,77.036 69.504,77.397 68.806 C 82.448 59.038,94.934 51.024,107.305 49.610 C 112.480 49.018,196.803 49.289,200.800 49.910 C 218.981 52.734,232.651 67.898,234.417 87.200 C 235.289 96.725,234.741 189.454,233.800 191.761 C 229.938 201.231,217.080 202.344,212.407 193.614 C 210.810 190.628,210.819 190.921,210.791 141.286 C 210.762 90.163,210.831 92.373,209.257 92.454 C 208.315 92.503,208.298 92.528,209.100 92.682 L 210.000 92.856 210.000 139.645 C 210.000 193.889,209.844 191.344,213.432 195.638 C 219.484 202.882,230.497 201.045,234.039 192.200 L 235.000 189.800 235.119 140.600 C 235.194 109.858,235.088 89.721,234.836 86.925 C 233.036 66.881,218.730 51.828,199.000 49.218 C 194.085 48.568,109.188 48.722,105.000 49.389 M74.756 73.101 C 73.263 76.959,72.695 78.828,72.940 79.073 C 73.057 79.190,73.452 78.258,73.817 77.001 C 74.182 75.744,74.911 73.745,75.436 72.558 C 75.960 71.371,76.257 70.401,76.095 70.401 C 75.933 70.402,75.330 71.617,74.756 73.101 M71.945 81.678 C 70.595 86.932,71.269 193.664,72.644 192.290 C 72.765 192.168,72.625 191.648,72.332 191.134 C 71.525 189.718,71.547 84.671,72.355 81.889 C 72.661 80.837,72.816 79.883,72.700 79.767 C 72.585 79.651,72.245 80.512,71.945 81.678 M96.189 92.900 C 96.086 93.175,95.957 115.090,95.901 141.600 L 95.800 189.800 94.679 192.200 C 90.523 201.099,78.053 202.089,73.738 193.863 C 73.409 193.237,73.051 192.816,72.941 192.926 C 72.599 193.268,74.821 196.321,76.144 197.327 C 83.305 202.770,93.113 199.408,95.786 190.594 C 96.312 188.863,96.392 182.327,96.396 140.980 C 96.399 104.480,96.512 93.248,96.880 92.880 C 97.253 92.507,97.251 92.400,96.867 92.400 C 96.597 92.400,96.291 92.625,96.189 92.900 M98.100 92.676 C 98.485 92.776,99.115 92.776,99.500 92.676 C 99.885 92.575,99.570 92.493,98.800 92.493 C 98.030 92.493,97.715 92.575,98.100 92.676 M109.400 92.735 L 110.600 93.008 110.800 221.604 C 110.947 316.441,111.120 350.527,111.456 351.444 C 112.135 353.296,112.836 354.498,113.089 354.244 C 113.213 354.120,113.127 353.790,112.899 353.510 C 111.374 351.639,111.412 354.599,111.202 221.200 L 111.000 92.600 109.600 92.531 C 108.237 92.464,108.232 92.469,109.400 92.735 M195.851 93.010 C 195.723 93.346,195.609 150.541,195.598 220.110 C 195.579 351.076,195.593 350.062,193.793 353.614 C 186.356 368.290,164.767 365.651,161.376 349.652 C 160.905 347.430,160.812 335.062,160.801 273.400 C 160.794 232.920,160.642 199.571,160.464 199.290 C 160.218 198.902,158.479 198.807,153.170 198.890 L 146.200 199.000 146.000 274.000 L 145.800 349.000 144.859 351.600 C 140.149 364.613,123.626 367.526,114.949 356.873 C 113.987 355.693,113.200 354.942,113.200 355.205 C 113.200 355.468,114.415 356.889,115.900 358.363 C 124.652 367.050,137.876 365.191,144.093 354.400 C 146.310 350.551,146.178 355.166,146.397 274.400 L 146.600 199.400 153.400 199.400 L 160.200 199.400 160.412 274.400 C 160.557 325.921,160.758 349.838,161.051 350.800 C 165.859 366.534,186.960 368.478,194.125 353.846 C 196.019 349.977,196.000 350.717,196.000 282.245 C 196.000 246.360,196.120 189.063,196.266 154.919 L 196.532 92.837 198.566 92.693 L 200.600 92.548 198.343 92.474 C 196.640 92.418,196.028 92.550,195.851 93.010 M203.700 92.691 C 204.525 92.778,205.875 92.778,206.700 92.691 C 207.525 92.605,206.850 92.534,205.200 92.534 C 203.550 92.534,202.875 92.605,203.700 92.691 M282.400 285.426 C 277.442 286.293,274.494 287.086,273.800 287.741 C 273.547 287.980,273.693 288.010,274.200 287.825 C 287.627 282.906,303.860 286.629,314.053 296.965 C 318.835 301.813,320.777 305.178,324.119 314.400 C 324.260 314.789,324.348 314.682,324.368 314.095 C 324.386 313.597,324.233 312.877,324.029 312.495 C 323.825 312.113,323.040 310.245,322.286 308.344 C 318.091 297.779,308.413 289.675,295.800 286.165 C 293.818 285.614,284.323 285.090,282.400 285.426 M268.505 289.970 C 249.000 300.724,242.402 326.608,254.514 344.857 C 256.312 347.565,262.630 354.400,263.337 354.400 C 263.569 354.400,262.732 353.484,261.476 352.364 C 257.798 349.086,254.108 344.066,252.355 339.953 C 244.215 320.860,251.082 300.117,268.809 290.251 C 270.234 289.458,271.220 288.810,271.000 288.812 C 270.780 288.813,269.657 289.334,268.505 289.970 M324.699 317.200 C 325.687 324.417,324.665 333.249,322.222 338.589 C 321.660 339.818,321.200 340.975,321.200 341.161 C 321.200 341.899,317.174 347.554,314.883 350.034 C 302.525 363.412,280.188 366.026,265.900 355.766 C 264.855 355.015,264.000 354.543,264.000 354.715 C 264.000 355.714,273.109 360.242,277.800 361.575 C 281.722 362.689,292.365 362.688,296.200 361.573 C 311.154 357.223,320.649 347.489,324.850 332.200 C 325.553 329.645,325.568 317.471,324.871 316.000 C 324.473 315.161,324.446 315.353,324.699 317.200 M285.454 322.029 C 282.847 324.080,285.983 327.688,288.711 325.777 C 289.200 325.435,289.595 324.850,289.588 324.477 C 289.578 323.910,289.502 323.929,289.122 324.600 C 288.211 326.206,286.566 326.488,285.430 325.233 C 284.380 324.073,284.776 322.712,286.400 321.901 C 287.170 321.516,287.509 321.201,287.154 321.201 C 286.799 321.200,286.034 321.573,285.454 322.029 " stroke="none" fill="#96938f" fill-rule="evenodd"></path><path id="path4" d="M105.600 49.812 C 102.251 50.340,96.794 51.892,98.037 51.964 C 98.388 51.984,99.648 51.670,100.837 51.267 C 105.593 49.654,110.054 49.527,154.800 49.726 C 193.569 49.898,201.038 50.084,204.400 50.962 L 205.400 51.223 204.400 50.747 C 202.086 49.648,196.607 49.501,153.600 49.391 C 117.839 49.299,108.326 49.382,105.600 49.812 M208.400 52.360 C 216.401 55.351,225.163 62.809,228.580 69.537 C 228.953 70.273,229.345 70.789,229.449 70.684 C 229.735 70.399,228.374 68.136,226.031 65.000 C 221.959 59.550,213.790 53.511,208.191 51.813 C 205.023 50.852,205.133 51.139,208.400 52.360 M92.689 54.161 C 83.336 59.329,76.822 67.248,73.779 77.151 C 73.196 79.048,72.512 81.230,72.259 82.000 C 71.923 83.026,71.800 97.674,71.800 136.800 L 71.800 190.200 72.927 192.400 C 77.866 202.042,90.135 201.929,94.679 192.200 L 95.800 189.800 96.000 141.200 L 96.200 92.600 103.600 92.600 L 111.000 92.600 111.200 221.267 C 111.310 292.033,111.490 350.023,111.600 350.133 C 111.855 350.388,111.663 93.175,111.408 92.491 C 111.262 92.099,109.460 92.007,103.509 92.091 L 95.800 92.200 95.597 140.800 C 95.453 175.144,95.263 189.759,94.947 190.623 C 91.091 201.176,77.966 202.129,73.319 192.194 L 72.200 189.800 72.086 140.600 C 71.969 89.599,72.111 83.713,73.568 79.174 C 74.022 77.758,74.596 75.970,74.843 75.200 C 77.465 67.015,84.575 59.005,93.564 54.112 C 95.674 52.963,97.220 52.018,97.000 52.012 C 96.780 52.005,94.840 52.972,92.689 54.161 M229.600 71.413 C 229.600 71.531,230.051 72.518,230.603 73.607 C 231.533 75.442,232.028 76.966,233.391 82.200 C 233.677 83.300,233.929 83.840,233.951 83.400 C 234.012 82.159,232.199 76.058,231.011 73.500 C 230.057 71.448,229.600 70.773,229.600 71.413 M234.200 137.000 L 234.200 189.800 232.969 192.400 C 232.280 193.856,231.073 195.583,230.227 196.325 C 229.396 197.053,228.801 197.734,228.905 197.839 C 229.316 198.249,233.047 193.622,233.800 191.769 C 234.651 189.675,235.281 96.921,234.506 87.800 C 234.338 85.820,234.200 107.960,234.200 137.000 M195.680 92.480 C 195.309 92.851,195.197 121.601,195.187 219.380 C 195.180 288.911,195.019 347.002,194.829 348.472 C 192.682 365.119,169.663 368.227,162.782 352.800 C 162.144 351.370,161.618 350.470,161.612 350.800 C 161.564 353.441,166.336 359.360,170.114 361.346 C 180.413 366.759,193.610 360.290,195.229 349.035 C 195.424 347.685,195.588 290.238,195.598 220.110 C 195.609 150.541,195.723 93.346,195.851 93.010 C 196.273 91.912,210.257 92.121,210.610 93.230 C 210.754 93.687,210.961 93.972,211.069 93.864 C 211.177 93.757,211.064 93.293,210.818 92.834 C 210.283 91.834,196.645 91.515,195.680 92.480 M210.864 187.800 C 210.688 191.598,213.730 196.603,217.373 198.510 C 219.950 199.858,229.636 199.503,228.244 198.111 C 228.120 197.987,227.739 198.119,227.396 198.403 C 225.259 200.177,216.896 198.669,214.794 196.131 C 212.621 193.508,211.537 191.073,211.086 187.800 L 210.920 186.600 210.864 187.800 M145.867 198.667 C 145.720 198.813,145.644 232.158,145.698 272.767 L 145.797 346.600 145.998 272.800 L 146.200 199.000 153.290 198.891 L 160.380 198.782 160.625 199.891 C 161.013 201.647,161.135 201.867,161.168 200.874 C 161.250 198.471,161.023 198.400,153.253 198.400 C 149.337 198.400,146.013 198.520,145.867 198.667 M285.500 285.893 C 286.435 285.977,287.965 285.977,288.900 285.893 C 289.835 285.809,289.070 285.740,287.200 285.740 C 285.330 285.740,284.565 285.809,285.500 285.893 M277.800 286.783 C 264.337 290.338,251.876 302.669,250.185 314.110 C 250.080 314.820,250.423 314.140,250.947 312.600 C 255.746 298.483,266.306 289.277,280.800 286.574 C 282.662 286.227,283.003 286.083,282.000 286.067 C 281.230 286.054,279.340 286.377,277.800 286.783 M293.637 286.588 C 300.739 287.952,307.164 291.076,312.126 295.578 C 312.745 296.139,313.144 296.329,313.013 295.999 C 311.826 293.007,299.012 286.749,292.979 286.215 C 290.680 286.012,290.702 286.025,293.637 286.588 M315.768 299.200 C 317.864 301.643,318.285 302.026,317.304 300.600 C 316.850 299.940,315.971 298.950,315.350 298.400 C 314.601 297.736,314.741 298.004,315.768 299.200 M318.552 302.685 C 318.745 302.972,319.596 304.510,320.441 306.103 C 321.287 307.697,321.984 308.854,321.989 308.675 C 322.009 308.058,319.932 304.128,319.067 303.146 C 318.590 302.605,318.358 302.397,318.552 302.685 M323.009 312.000 C 323.131 312.550,323.501 314.260,323.829 315.800 C 324.607 319.443,324.848 319.924,324.548 317.235 C 324.416 316.044,323.965 314.154,323.547 313.035 C 323.128 311.916,322.886 311.450,323.009 312.000 M249.382 317.382 C 249.229 318.402,249.202 319.335,249.322 319.455 C 249.442 319.575,249.665 318.839,249.818 317.818 C 249.971 316.798,249.998 315.865,249.878 315.745 C 249.758 315.625,249.535 316.361,249.382 317.382 M324.950 323.800 C 324.951 326.220,325.016 327.158,325.096 325.885 C 325.176 324.612,325.175 322.632,325.094 321.485 C 325.014 320.338,324.949 321.380,324.950 323.800 M248.940 324.000 C 248.940 325.870,249.009 326.635,249.093 325.700 C 249.177 324.765,249.177 323.235,249.093 322.300 C 249.009 321.365,248.940 322.130,248.940 324.000 M249.287 329.200 C 249.283 329.970,249.424 331.050,249.600 331.600 C 250.048 332.999,250.048 330.761,249.600 329.000 L 249.295 327.800 249.287 329.200 M324.212 330.600 C 324.034 331.700,323.481 333.860,322.981 335.400 C 322.481 336.940,322.141 338.270,322.225 338.355 C 322.666 338.804,324.955 330.413,324.696 329.298 C 324.607 328.914,324.389 329.500,324.212 330.600 M250.029 333.125 C 249.986 333.907,251.324 337.827,251.478 337.367 C 251.550 337.150,251.261 335.988,250.834 334.786 C 250.407 333.584,250.045 332.836,250.029 333.125 M251.624 338.050 C 251.524 339.101,255.417 345.992,256.483 346.651 C 256.725 346.801,256.312 346.041,255.564 344.962 C 254.816 343.883,253.629 341.830,252.926 340.400 C 252.223 338.970,251.637 337.913,251.624 338.050 M318.800 344.325 C 313.822 352.018,307.249 356.947,297.200 360.523 C 296.756 360.681,296.741 360.745,297.144 360.768 C 302.366 361.071,315.230 351.296,319.956 343.433 C 322.076 339.906,321.245 340.547,318.800 344.325 M160.870 346.000 C 160.857 346.550,160.995 347.720,161.177 348.600 L 161.508 350.200 161.507 348.800 C 161.505 347.035,160.909 344.412,160.870 346.000 M145.047 348.537 C 144.878 349.602,144.832 350.565,144.944 350.678 C 145.236 350.969,145.705 348.224,145.514 347.340 C 145.427 346.933,145.216 347.471,145.047 348.537 M257.893 348.626 C 260.832 352.428,266.211 356.453,271.453 358.773 C 275.060 360.369,277.985 361.280,276.800 360.438 C 276.470 360.204,275.959 360.009,275.665 360.006 C 272.908 359.975,264.301 354.624,259.788 350.135 C 258.001 348.358,257.180 347.704,257.893 348.626 M112.027 351.126 C 111.866 354.243,121.072 363.861,122.679 362.255 C 122.788 362.145,121.960 361.661,120.838 361.178 C 118.573 360.204,114.439 356.122,113.478 353.911 C 113.165 353.190,112.716 352.150,112.481 351.600 C 112.246 351.050,112.042 350.837,112.027 351.126 M142.853 354.914 C 139.448 360.424,132.057 363.887,126.082 362.772 C 124.697 362.514,123.470 362.396,123.356 362.511 C 123.241 362.625,124.428 362.935,125.992 363.199 C 130.564 363.970,136.175 362.329,139.775 359.168 C 141.382 357.757,144.196 354.063,143.893 353.760 C 143.782 353.649,143.314 354.168,142.853 354.914 M278.200 361.200 C 278.640 361.389,279.450 361.538,280.000 361.532 L 281.000 361.520 280.000 361.200 C 279.450 361.024,278.640 360.874,278.200 360.868 L 277.400 360.856 278.200 361.200 M294.000 361.200 L 293.000 361.520 294.000 361.532 C 294.550 361.538,295.360 361.389,295.800 361.200 L 296.600 360.856 295.800 360.868 C 295.360 360.874,294.550 361.024,294.000 361.200 M284.082 361.896 C 285.558 361.973,288.078 361.973,289.682 361.897 C 291.287 361.821,290.080 361.758,287.000 361.758 C 283.920 361.757,282.607 361.819,284.082 361.896 " stroke="none" fill="#74746c" fill-rule="evenodd"></path></g></svg>